<svg width="59" height="60" viewBox="0 0 59 60" fill="none" xmlns="http://www.w3.org/2000/svg">
<mask id="mask0" mask-type="alpha" maskUnits="userSpaceOnUse" x="0" y="0" width="59" height="60">
<path fill-rule="evenodd" clip-rule="evenodd" d="M0 0H58.2839V58.283H0V0Z" transform="translate(0.666016 0.840332)" fill="white"/>
</mask>
<g mask="url(#mask0)">
<path fill-rule="evenodd" clip-rule="evenodd" d="M40.0846 21.1658C38.4583 21.1364 37.1489 19.8246 37.1172 18.2019C36.926 8.11595 28.6927 0 18.561 0C8.30955 0 0 8.30955 0 18.5598V55.3332C0 56.9618 1.32235 58.283 2.95211 58.283H39.7232C49.9746 58.283 58.2842 49.9746 58.2842 39.7244C58.2842 29.5926 50.1694 21.3582 40.0846 21.1658Z" transform="translate(0.666016 0.840332)" fill="white"/>
</g>
<path fill-rule="evenodd" clip-rule="evenodd" d="M2.91699 6.05675H9.43134V5.544C9.43134 3.66784 8.34718 2.73035 6.14601 2.73035C4.0035 2.73035 2.91699 3.66784 2.91699 5.544V6.05675ZM12.286 7.13856C12.171 8.18987 11.887 8.44565 10.8357 8.44565H2.92864V9.07104C2.92864 11.1478 4.12427 11.9715 6.99659 11.9715C8.16288 11.9715 9.38432 11.8295 10.6914 11.5174C11.6019 11.2898 11.8589 11.5174 11.8589 12.5136V12.8832C11.8589 13.8207 11.6876 14.0202 10.6914 14.2759C9.55563 14.5892 8.33301 14.7312 6.99659 14.7312C2.2176 14.7312 0 12.9383 0 8.64512V6.17173C0 2.04629 2.10379 0 6.31371 0C10.2655 0 12.3423 2.01813 12.3423 5.88544C12.3423 6.31371 12.313 6.71147 12.286 7.13856Z" transform="translate(22.3662 33.2004)" fill="#1D1D1B"/>
<path fill-rule="evenodd" clip-rule="evenodd" d="M2.92981 13.4511C2.92981 14.4754 2.67403 14.7312 1.64971 14.7312H1.28128C0.255787 14.7312 0 14.4754 0 13.4511V5.51584C0 1.84683 2.07563 0 6.19989 0C10.5225 0 12.3716 1.84683 12.3716 5.51584V13.4511C12.3716 14.4754 12.1158 14.7312 11.0915 14.7312H10.7219C9.69995 14.7312 9.44181 14.4754 9.44181 13.4511V5.51584C9.44181 3.58336 8.73077 2.73035 6.19989 2.73035C3.67019 2.73035 2.92981 3.58336 2.92981 5.51584V13.4511Z" transform="translate(37.6084 33.2002)" fill="#1D1D1B"/>
<path fill-rule="evenodd" clip-rule="evenodd" d="M10.0698 14.0776C10.0698 16.4666 9.32947 17.4615 6.51582 17.4615C3.69864 17.4615 2.9043 16.4384 2.9043 14.0776V11.6324C2.9043 9.24351 3.69864 8.22037 6.45832 8.22037H6.51582C9.27198 8.22037 10.0698 9.24351 10.0698 11.6324V14.0776ZM6.50144 5.49003C6.29728 5.49003 6.70091 5.49003 6.50144 5.49003C5.31403 5.49003 3.7312 5.67893 2.904 6.05088V1.28011C2.904 0.255787 2.64704 0 1.62272 0H1.28128C0.259307 0 0 0.255787 0 1.28011V14.1351C0 18.2031 2.41824 20.2201 6.48501 20.2201C10.8369 20.2201 12.9982 18.2582 12.9982 14.1351V11.6887C12.9982 7.56565 10.4544 5.49003 6.50144 5.49003Z" transform="translate(6.4668 27.7107)" fill="#1D1D1B"/>
</svg>
